<svg width="24" height="24" viewBox="0 0 24 24" fill="none" xmlns="http://www.w3.org/2000/svg">
<rect width="24" height="24" rx="4" fill="#00715D"/>
<path opacity="0.5" d="M19.5 10.5H4.5V17.25C4.5 17.8467 4.73705 18.419 5.15901 18.841C5.58097 19.2629 6.15326 19.5 6.75 19.5H17.25C17.8467 19.5 18.419 19.2629 18.841 18.841C19.2629 18.419 19.5 17.8467 19.5 17.25V10.5ZM8.25 9C8.05109 9 7.86032 8.92098 7.71967 8.78033C7.57902 8.63968 7.5 8.44891 7.5 8.25V5.25C7.5 5.05109 7.57902 4.86032 7.71967 4.71967C7.86032 4.57902 8.05109 4.5 8.25 4.5C8.44891 4.5 8.63968 4.57902 8.78033 4.71967C8.92098 4.86032 9 5.05109 9 5.25V8.25C9 8.44891 8.92098 8.63968 8.78033 8.78033C8.63968 8.92098 8.44891 9 8.25 9ZM15.75 9C15.5511 9 15.3603 8.92098 15.2197 8.78033C15.079 8.63968 15 8.44891 15 8.25V5.25C15 5.05109 15.079 4.86032 15.2197 4.71967C15.3603 4.57902 15.5511 4.5 15.75 4.5C15.9489 4.5 16.1397 4.57902 16.2803 4.71967C16.421 4.86032 16.5 5.05109 16.5 5.25V8.25C16.5 8.44891 16.421 8.63968 16.2803 8.78033C16.1397 8.92098 15.9489 9 15.75 9Z" fill="#EDEFE5"/>
<path d="M17.25 6H16.5V8.25C16.5 8.44891 16.421 8.63968 16.2803 8.78033C16.1397 8.92098 15.9489 9 15.75 9C15.5511 9 15.3603 8.92098 15.2197 8.78033C15.079 8.63968 15 8.44891 15 8.25V6H9V8.25C9 8.44891 8.92098 8.63968 8.78033 8.78033C8.63968 8.92098 8.44891 9 8.25 9C8.05109 9 7.86032 8.92098 7.71967 8.78033C7.57902 8.63968 7.5 8.44891 7.5 8.25V6H6.75C6.15326 6 5.58097 6.23705 5.15901 6.65901C4.73705 7.08097 4.5 7.65326 4.5 8.25V10.5H19.5V8.25C19.5 7.65326 19.2629 7.08097 18.841 6.65901C18.419 6.23705 17.8467 6 17.25 6Z" fill="#FBD45A"/>
</svg>
