<svg width="27" height="28" viewBox="0 0 27 28" fill="none" xmlns="http://www.w3.org/2000/svg">
<path d="M27 14C27 17.713 25.5777 21.274 23.0459 23.8995C20.5142 26.525 17.0804 28 13.5 28C9.91958 28 6.4858 26.525 3.95406 23.8995C1.42232 21.274 0 17.713 0 14C0 10.287 1.42232 6.72601 3.95406 4.10051C6.4858 1.475 9.91958 0 13.5 0C17.0804 0 20.5142 1.475 23.0459 4.10051C25.5777 6.72601 27 10.287 27 14ZM13.5 6.125C13.5 5.89294 13.4111 5.67038 13.2529 5.50628C13.0946 5.34219 12.88 5.25 12.6562 5.25C12.4325 5.25 12.2179 5.34219 12.0596 5.50628C11.9014 5.67038 11.8125 5.89294 11.8125 6.125V15.75C11.8125 15.9042 11.8519 16.0557 11.9266 16.1891C12.0013 16.3225 12.1086 16.433 12.2378 16.5095L18.144 20.0095C18.3378 20.1181 18.5649 20.1438 18.7768 20.0811C18.9886 20.0184 19.1684 19.8722 19.2777 19.6738C19.3871 19.4755 19.4172 19.2406 19.3618 19.0195C19.3063 18.7984 19.1697 18.6085 18.981 18.4905L13.5 15.2425V6.125Z" fill="#FBD45A"/>
</svg>
