<svg width="44" height="36" viewBox="0 0 44 36" fill="none" xmlns="http://www.w3.org/2000/svg">
<path d="M30.3331 6.08342C30.3329 7.33699 29.8371 8.53965 28.9539 9.42925C26.9206 11.4793 24.9477 13.6168 22.8373 15.5918C22.6016 15.8064 22.2926 15.9224 21.9739 15.9158C21.6553 15.9092 21.3513 15.7805 21.1248 15.5563L15.0456 9.43133C14.1619 8.54117 13.666 7.33773 13.666 6.08342C13.666 4.82911 14.1619 3.62567 15.0456 2.7355C15.4865 2.2913 16.011 1.93875 16.5888 1.69816C17.1667 1.45758 17.7864 1.33371 18.4123 1.33371C19.0382 1.33371 19.6579 1.45758 20.2357 1.69816C20.8135 1.93875 21.338 2.2913 21.7789 2.7355L21.9998 2.95842L22.2206 2.7355C22.8825 2.06647 23.7285 1.60953 24.6509 1.42284C25.5733 1.23616 26.5304 1.32818 27.4003 1.68719C28.2702 2.0462 29.0137 2.65596 29.5359 3.43884C30.0582 4.22173 30.3357 5.14232 30.3331 6.08342Z" fill="#EF7777" stroke="#EF7777" stroke-width="1.5" stroke-linejoin="round"/>
<path d="M34.5 34.6667L42.4667 26.7C42.7012 26.4658 42.833 26.1481 42.8333 25.8167V14.875C42.8333 14.0462 42.5041 13.2513 41.918 12.6653C41.332 12.0792 40.5371 11.75 39.7083 11.75C38.8795 11.75 38.0847 12.0792 37.4986 12.6653C36.9126 13.2513 36.5833 14.0462 36.5833 14.875V24.25" stroke="#00715D" stroke-width="1.5" stroke-linecap="round" stroke-linejoin="round"/>
<path d="M34.4998 26.3333L36.2873 24.5458C36.3813 24.4521 36.4557 24.3407 36.5065 24.218C36.5573 24.0954 36.5833 23.964 36.5832 23.8312C36.5829 23.6439 36.5305 23.4603 36.4319 23.301C36.3333 23.1417 36.1924 23.013 36.0248 22.9292L35.1019 22.4688C34.32 22.0778 33.435 21.9427 32.572 22.0825C31.7091 22.2223 30.912 22.6301 30.2936 23.2479L28.429 25.1125C27.6476 25.8937 27.2084 26.9534 27.2082 28.0583V34.6667M9.49984 34.6667L1.53317 26.7C1.29868 26.4658 1.1668 26.1481 1.1665 25.8167V14.875C1.1665 14.0462 1.49574 13.2513 2.0818 12.6653C2.66785 12.0792 3.4627 11.75 4.2915 11.75C5.12031 11.75 5.91516 12.0792 6.50121 12.6653C7.08726 13.2513 7.4165 14.0462 7.4165 14.875V24.25" stroke="#00715D" stroke-width="1.5" stroke-linecap="round" stroke-linejoin="round"/>
<path d="M9.49984 26.3333L7.71234 24.5458C7.61852 24.4519 7.5441 24.3405 7.49335 24.2179C7.44259 24.0953 7.41647 23.9639 7.4165 23.8312C7.4165 23.4499 7.63317 23.102 7.97484 22.9291L8.89775 22.4687C9.67965 22.0778 10.5647 21.9426 11.4276 22.0825C12.2906 22.2223 13.0877 22.63 13.7061 23.2479L15.5707 25.1124C16.3521 25.8937 16.7913 26.9533 16.7915 28.0583V34.6666" stroke="#00715D" stroke-width="1.5" stroke-linecap="round" stroke-linejoin="round"/>
</svg>
