<svg width="24" height="24" viewBox="0 0 24 24" fill="none" xmlns="http://www.w3.org/2000/svg">
<rect width="24" height="24" rx="4" fill="#00715D"/>
<path d="M11.5 4C8.46366 4 6 6.30393 6 9.14286C6 13.7143 11.5 20 11.5 20C11.5 20 17 13.7143 17 9.14286C17 6.30393 14.5363 4 11.5 4ZM11.5 12C11.0649 12 10.6395 11.8659 10.2777 11.6148C9.91596 11.3636 9.63398 11.0067 9.46747 10.589C9.30095 10.1713 9.25738 9.71175 9.34227 9.26837C9.42716 8.82498 9.63669 8.4177 9.94437 8.09804C10.252 7.77838 10.644 7.56069 11.0708 7.47249C11.4976 7.3843 11.9399 7.42956 12.3419 7.60256C12.7439 7.77556 13.0875 8.06853 13.3292 8.44441C13.571 8.82029 13.7 9.26221 13.7 9.71429C13.6994 10.3203 13.4674 10.9013 13.0549 11.3298C12.6425 11.7583 12.0833 11.9993 11.5 12Z" fill="#FBD45A"/>
</svg>
