<svg width="16" height="24" viewBox="0 0 24 35" fill="none" xmlns="http://www.w3.org/2000/svg">
<path d="M12 0C5.37525 0 0 5.03984 0 11.25C0 21.25 12 35 12 35C12 35 24 21.25 24 11.25C24 5.03984 18.6248 0 12 0ZM12 17.5C11.0506 17.5 10.1226 17.2068 9.33326 16.6573C8.54391 16.1079 7.92868 15.327 7.56538 14.4134C7.20208 13.4998 7.10702 12.4945 7.29223 11.5245C7.47744 10.5546 7.9346 9.66373 8.60589 8.96447C9.27718 8.2652 10.1325 7.789 11.0636 7.59607C11.9947 7.40315 12.9598 7.50216 13.8369 7.8806C14.714 8.25904 15.4636 8.8999 15.9911 9.72215C16.5185 10.5444 16.8 11.5111 16.8 12.5C16.7986 13.8256 16.2925 15.0966 15.3926 16.0339C14.4927 16.9713 13.2726 17.4986 12 17.5Z" fill="#FBD45A"/>
</svg>
