<svg width="44" height="38" viewBox="0 0 44 38" fill="none" xmlns="http://www.w3.org/2000/svg">
<path d="M22 0.256348C21.1801 0.256348 20.3681 0.417847 19.6106 0.731625C18.8531 1.0454 18.1648 1.50531 17.585 2.0851C17.0052 2.66489 16.5453 3.35319 16.2315 4.11072C15.9177 4.86824 15.7562 5.68016 15.7562 6.5001C15.7562 7.32004 15.9177 8.13195 16.2315 8.88948C16.5453 9.647 17.0052 10.3353 17.585 10.9151C18.1648 11.4949 18.8531 11.9548 19.6106 12.2686C20.3681 12.5823 21.1801 12.7438 22 12.7438C23.6559 12.7438 25.2441 12.086 26.415 10.9151C27.5859 9.74417 28.2438 8.15604 28.2438 6.5001C28.2438 4.84415 27.5859 3.25603 26.415 2.0851C25.2441 0.914169 23.6559 0.256348 22 0.256348ZM36.0625 3.3751C34.8193 3.3751 33.627 3.86896 32.7479 4.74803C31.8689 5.62711 31.375 6.8194 31.375 8.0626C31.375 9.3058 31.8689 10.4981 32.7479 11.3772C33.627 12.2562 34.8193 12.7501 36.0625 12.7501C37.3057 12.7501 38.498 12.2562 39.3771 11.3772C40.2561 10.4981 40.75 9.3058 40.75 8.0626C40.75 6.8194 40.2561 5.62711 39.3771 4.74803C38.498 3.86896 37.3057 3.3751 36.0625 3.3751ZM7.9375 3.3751C6.6943 3.3751 5.50201 3.86896 4.62294 4.74803C3.74386 5.62711 3.25 6.8194 3.25 8.0626C3.25 9.3058 3.74386 10.4981 4.62294 11.3772C5.50201 12.2562 6.6943 12.7501 7.9375 12.7501C9.1807 12.7501 10.373 12.2562 11.2521 11.3772C12.1311 10.4981 12.625 9.3058 12.625 8.0626C12.625 6.8194 12.1311 5.62711 11.2521 4.74803C10.373 3.86896 9.1807 3.3751 7.9375 3.3751ZM12.625 18.9782C12.6308 18.1532 12.9626 17.364 13.548 16.7826C14.1334 16.2013 14.925 15.8751 15.75 15.8751H28.25C29.0788 15.8751 29.8737 16.2043 30.4597 16.7904C31.0458 17.3764 31.375 18.1713 31.375 19.0001V28.3751C31.3748 29.3586 31.2208 30.336 30.9188 31.272C30.2268 33.3929 28.8014 35.1977 26.8985 36.3623C24.9956 37.5268 22.7399 37.9749 20.5363 37.626C18.3328 37.277 16.3259 36.154 14.8759 34.4585C13.4259 32.763 12.6278 30.6061 12.625 28.3751V19.0001V18.9782ZM9.5 19.0001C9.5 17.8595 9.80313 16.7938 10.3375 15.8751H3.25C2.4212 15.8751 1.62634 16.2043 1.04029 16.7904C0.45424 17.3764 0.125 18.1713 0.125 19.0001V26.8126C0.124575 28.0917 0.438206 29.3513 1.03835 30.4808C1.6385 31.6104 2.5068 32.5753 3.56701 33.2908C4.62721 34.0064 5.84689 34.4507 7.11893 34.5847C8.39097 34.7187 9.67645 34.5384 10.8625 34.0595C9.96306 32.2988 9.496 30.3491 9.5 28.372V19.0001ZM34.5 19.0001V28.3751C34.5 30.422 34.0094 32.3532 33.1375 34.0595C34.3235 34.5384 35.609 34.7187 36.8811 34.5847C38.1531 34.4507 39.3728 34.0064 40.433 33.2908C41.4932 32.5753 42.3615 31.6104 42.9616 30.4808C43.5618 29.3513 43.8754 28.0917 43.875 26.8126V19.0001C43.875 18.1713 43.5458 17.3764 42.9597 16.7904C42.3737 16.2043 41.5788 15.8751 40.75 15.8751H33.6625C34.1938 16.7938 34.5 17.8595 34.5 19.0001Z" fill="#00715D"/>
</svg>
